<svg xmlns="http://www.w3.org/2000/svg" xml:space="preserve" xmlns:xlink="http://www.w3.org/1999/xlink" style="max-width: 100%;height: auto;" width="1068.1666666667" height="1200.6875" viewBox="0 0 1068.1666666667 1200.6875">
<rect width="899.04027777778" height="899.04027777778" fill="#ffffff" x="84.013888888889" y="84.013888888889"  />
<g fill="#000000" transform="scale(44.506944444444)"> <path d="M24,21h-1.7V1.7H1.7V21H0l1,2l-1,2h1v2h22v-2h1l-1-2L24,21z M2,2h20v19v1H2v-1V2z"/></g>
<g  fill="#000000">
<g transform="translate(365.08333333333,157.08333333333) scale(4.4633333333333)"><rect width="6" height="6"/></g>
<g transform="translate(573.08333333333,157.08333333333) scale(4.4633333333333)"><rect width="6" height="6"/></g>
<g transform="translate(599.08333333333,157.08333333333) scale(4.4633333333333)"><rect width="6" height="6"/></g>
<g transform="translate(625.08333333333,157.08333333333) scale(4.4633333333333)"><rect width="6" height="6"/></g>
<g transform="translate(677.08333333333,157.08333333333) scale(4.4633333333333)"><rect width="6" height="6"/></g>
<g transform="translate(365.08333333333,183.08333333333) scale(4.4633333333333)"><rect width="6" height="6"/></g>
<g transform="translate(391.08333333333,183.08333333333) scale(4.4633333333333)"><rect width="6" height="6"/></g>
<g transform="translate(417.08333333333,183.08333333333) scale(4.4633333333333)"><rect width="6" height="6"/></g>
<g transform="translate(469.08333333333,183.08333333333) scale(4.4633333333333)"><rect width="6" height="6"/></g>
<g transform="translate(521.08333333333,183.08333333333) scale(4.4633333333333)"><rect width="6" height="6"/></g>
<g transform="translate(573.08333333333,183.08333333333) scale(4.4633333333333)"><rect width="6" height="6"/></g>
<g transform="translate(599.08333333333,183.08333333333) scale(4.4633333333333)"><rect width="6" height="6"/></g>
<g transform="translate(651.08333333333,183.08333333333) scale(4.4633333333333)"><rect width="6" height="6"/></g>
<g transform="translate(365.08333333333,209.08333333333) scale(4.4633333333333)"><rect width="6" height="6"/></g>
<g transform="translate(443.08333333333,209.08333333333) scale(4.4633333333333)"><rect width="6" height="6"/></g>
<g transform="translate(547.08333333333,209.08333333333) scale(4.4633333333333)"><rect width="6" height="6"/></g>
<g transform="translate(625.08333333333,209.08333333333) scale(4.4633333333333)"><rect width="6" height="6"/></g>
<g transform="translate(651.08333333333,209.08333333333) scale(4.4633333333333)"><rect width="6" height="6"/></g>
<g transform="translate(677.08333333333,209.08333333333) scale(4.4633333333333)"><rect width="6" height="6"/></g>
<g transform="translate(417.08333333333,235.08333333333) scale(4.4633333333333)"><rect width="6" height="6"/></g>
<g transform="translate(495.08333333333,235.08333333333) scale(4.4633333333333)"><rect width="6" height="6"/></g>
<g transform="translate(521.08333333333,235.08333333333) scale(4.4633333333333)"><rect width="6" height="6"/></g>
<g transform="translate(547.08333333333,235.08333333333) scale(4.4633333333333)"><rect width="6" height="6"/></g>
<g transform="translate(573.08333333333,235.08333333333) scale(4.4633333333333)"><rect width="6" height="6"/></g>
<g transform="translate(599.08333333333,235.08333333333) scale(4.4633333333333)"><rect width="6" height="6"/></g>
<g transform="translate(651.08333333333,235.08333333333) scale(4.4633333333333)"><rect width="6" height="6"/></g>
<g transform="translate(391.08333333333,261.08333333333) scale(4.4633333333333)"><rect width="6" height="6"/></g>
<g transform="translate(417.08333333333,261.08333333333) scale(4.4633333333333)"><rect width="6" height="6"/></g>
<g transform="translate(443.08333333333,261.08333333333) scale(4.4633333333333)"><rect width="6" height="6"/></g>
<g transform="translate(469.08333333333,261.08333333333) scale(4.4633333333333)"><rect width="6" height="6"/></g>
<g transform="translate(495.08333333333,261.08333333333) scale(4.4633333333333)"><rect width="6" height="6"/></g>
<g transform="translate(573.08333333333,261.08333333333) scale(4.4633333333333)"><rect width="6" height="6"/></g>
<g transform="translate(625.08333333333,261.08333333333) scale(4.4633333333333)"><rect width="6" height="6"/></g>
<g transform="translate(651.08333333333,261.08333333333) scale(4.4633333333333)"><rect width="6" height="6"/></g>
<g transform="translate(365.08333333333,287.08333333333) scale(4.4633333333333)"><rect width="6" height="6"/></g>
<g transform="translate(391.08333333333,287.08333333333) scale(4.4633333333333)"><rect width="6" height="6"/></g>
<g transform="translate(469.08333333333,287.08333333333) scale(4.4633333333333)"><rect width="6" height="6"/></g>
<g transform="translate(495.08333333333,287.08333333333) scale(4.4633333333333)"><rect width="6" height="6"/></g>
<g transform="translate(521.08333333333,287.08333333333) scale(4.4633333333333)"><rect width="6" height="6"/></g>
<g transform="translate(547.08333333333,287.08333333333) scale(4.4633333333333)"><rect width="6" height="6"/></g>
<g transform="translate(573.08333333333,287.08333333333) scale(4.4633333333333)"><rect width="6" height="6"/></g>
<g transform="translate(625.08333333333,287.08333333333) scale(4.4633333333333)"><rect width="6" height="6"/></g>
<g transform="translate(365.08333333333,313.08333333333) scale(4.4633333333333)"><rect width="6" height="6"/></g>
<g transform="translate(417.08333333333,313.08333333333) scale(4.4633333333333)"><rect width="6" height="6"/></g>
<g transform="translate(469.08333333333,313.08333333333) scale(4.4633333333333)"><rect width="6" height="6"/></g>
<g transform="translate(521.08333333333,313.08333333333) scale(4.4633333333333)"><rect width="6" height="6"/></g>
<g transform="translate(573.08333333333,313.08333333333) scale(4.4633333333333)"><rect width="6" height="6"/></g>
<g transform="translate(625.08333333333,313.08333333333) scale(4.4633333333333)"><rect width="6" height="6"/></g>
<g transform="translate(677.08333333333,313.08333333333) scale(4.4633333333333)"><rect width="6" height="6"/></g>
<g transform="translate(365.08333333333,339.08333333333) scale(4.4633333333333)"><rect width="6" height="6"/></g>
<g transform="translate(443.08333333333,339.08333333333) scale(4.4633333333333)"><rect width="6" height="6"/></g>
<g transform="translate(469.08333333333,339.08333333333) scale(4.4633333333333)"><rect width="6" height="6"/></g>
<g transform="translate(495.08333333333,339.08333333333) scale(4.4633333333333)"><rect width="6" height="6"/></g>
<g transform="translate(521.08333333333,339.08333333333) scale(4.4633333333333)"><rect width="6" height="6"/></g>
<g transform="translate(547.08333333333,339.08333333333) scale(4.4633333333333)"><rect width="6" height="6"/></g>
<g transform="translate(573.08333333333,339.08333333333) scale(4.4633333333333)"><rect width="6" height="6"/></g>
<g transform="translate(651.08333333333,339.08333333333) scale(4.4633333333333)"><rect width="6" height="6"/></g>
<g transform="translate(209.08333333333,365.08333333333) scale(4.4633333333333)"><rect width="6" height="6"/></g>
<g transform="translate(235.08333333333,365.08333333333) scale(4.4633333333333)"><rect width="6" height="6"/></g>
<g transform="translate(261.08333333333,365.08333333333) scale(4.4633333333333)"><rect width="6" height="6"/></g>
<g transform="translate(313.08333333333,365.08333333333) scale(4.4633333333333)"><rect width="6" height="6"/></g>
<g transform="translate(365.08333333333,365.08333333333) scale(4.4633333333333)"><rect width="6" height="6"/></g>
<g transform="translate(417.08333333333,365.08333333333) scale(4.4633333333333)"><rect width="6" height="6"/></g>
<g transform="translate(469.08333333333,365.08333333333) scale(4.4633333333333)"><rect width="6" height="6"/></g>
<g transform="translate(521.08333333333,365.08333333333) scale(4.4633333333333)"><rect width="6" height="6"/></g>
<g transform="translate(547.08333333333,365.08333333333) scale(4.4633333333333)"><rect width="6" height="6"/></g>
<g transform="translate(625.08333333333,365.08333333333) scale(4.4633333333333)"><rect width="6" height="6"/></g>
<g transform="translate(703.08333333333,365.08333333333) scale(4.4633333333333)"><rect width="6" height="6"/></g>
<g transform="translate(729.08333333333,365.08333333333) scale(4.4633333333333)"><rect width="6" height="6"/></g>
<g transform="translate(755.08333333333,365.08333333333) scale(4.4633333333333)"><rect width="6" height="6"/></g>
<g transform="translate(833.08333333333,365.08333333333) scale(4.4633333333333)"><rect width="6" height="6"/></g>
<g transform="translate(859.08333333333,365.08333333333) scale(4.4633333333333)"><rect width="6" height="6"/></g>
<g transform="translate(885.08333333333,365.08333333333) scale(4.4633333333333)"><rect width="6" height="6"/></g>
<g transform="translate(287.08333333333,391.08333333333) scale(4.4633333333333)"><rect width="6" height="6"/></g>
<g transform="translate(365.08333333333,391.08333333333) scale(4.4633333333333)"><rect width="6" height="6"/></g>
<g transform="translate(391.08333333333,391.08333333333) scale(4.4633333333333)"><rect width="6" height="6"/></g>
<g transform="translate(417.08333333333,391.08333333333) scale(4.4633333333333)"><rect width="6" height="6"/></g>
<g transform="translate(599.08333333333,391.08333333333) scale(4.4633333333333)"><rect width="6" height="6"/></g>
<g transform="translate(703.08333333333,391.08333333333) scale(4.4633333333333)"><rect width="6" height="6"/></g>
<g transform="translate(755.08333333333,391.08333333333) scale(4.4633333333333)"><rect width="6" height="6"/></g>
<g transform="translate(781.08333333333,391.08333333333) scale(4.4633333333333)"><rect width="6" height="6"/></g>
<g transform="translate(807.08333333333,391.08333333333) scale(4.4633333333333)"><rect width="6" height="6"/></g>
<g transform="translate(833.08333333333,391.08333333333) scale(4.4633333333333)"><rect width="6" height="6"/></g>
<g transform="translate(885.08333333333,391.08333333333) scale(4.4633333333333)"><rect width="6" height="6"/></g>
<g transform="translate(183.08333333333,417.08333333333) scale(4.4633333333333)"><rect width="6" height="6"/></g>
<g transform="translate(261.08333333333,417.08333333333) scale(4.4633333333333)"><rect width="6" height="6"/></g>
<g transform="translate(287.08333333333,417.08333333333) scale(4.4633333333333)"><rect width="6" height="6"/></g>
<g transform="translate(313.08333333333,417.08333333333) scale(4.4633333333333)"><rect width="6" height="6"/></g>
<g transform="translate(339.08333333333,417.08333333333) scale(4.4633333333333)"><rect width="6" height="6"/></g>
<g transform="translate(365.08333333333,417.08333333333) scale(4.4633333333333)"><rect width="6" height="6"/></g>
<g transform="translate(417.08333333333,417.08333333333) scale(4.4633333333333)"><rect width="6" height="6"/></g>
<g transform="translate(495.08333333333,417.08333333333) scale(4.4633333333333)"><rect width="6" height="6"/></g>
<g transform="translate(521.08333333333,417.08333333333) scale(4.4633333333333)"><rect width="6" height="6"/></g>
<g transform="translate(547.08333333333,417.08333333333) scale(4.4633333333333)"><rect width="6" height="6"/></g>
<g transform="translate(573.08333333333,417.08333333333) scale(4.4633333333333)"><rect width="6" height="6"/></g>
<g transform="translate(677.08333333333,417.08333333333) scale(4.4633333333333)"><rect width="6" height="6"/></g>
<g transform="translate(703.08333333333,417.08333333333) scale(4.4633333333333)"><rect width="6" height="6"/></g>
<g transform="translate(729.08333333333,417.08333333333) scale(4.4633333333333)"><rect width="6" height="6"/></g>
<g transform="translate(781.08333333333,417.08333333333) scale(4.4633333333333)"><rect width="6" height="6"/></g>
<g transform="translate(833.08333333333,417.08333333333) scale(4.4633333333333)"><rect width="6" height="6"/></g>
<g transform="translate(209.08333333333,443.08333333333) scale(4.4633333333333)"><rect width="6" height="6"/></g>
<g transform="translate(339.08333333333,443.08333333333) scale(4.4633333333333)"><rect width="6" height="6"/></g>
<g transform="translate(365.08333333333,443.08333333333) scale(4.4633333333333)"><rect width="6" height="6"/></g>
<g transform="translate(391.08333333333,443.08333333333) scale(4.4633333333333)"><rect width="6" height="6"/></g>
<g transform="translate(417.08333333333,443.08333333333) scale(4.4633333333333)"><rect width="6" height="6"/></g>
<g transform="translate(443.08333333333,443.08333333333) scale(4.4633333333333)"><rect width="6" height="6"/></g>
<g transform="translate(469.08333333333,443.08333333333) scale(4.4633333333333)"><rect width="6" height="6"/></g>
<g transform="translate(547.08333333333,443.08333333333) scale(4.4633333333333)"><rect width="6" height="6"/></g>
<g transform="translate(599.08333333333,443.08333333333) scale(4.4633333333333)"><rect width="6" height="6"/></g>
<g transform="translate(651.08333333333,443.08333333333) scale(4.4633333333333)"><rect width="6" height="6"/></g>
<g transform="translate(703.08333333333,443.08333333333) scale(4.4633333333333)"><rect width="6" height="6"/></g>
<g transform="translate(729.08333333333,443.08333333333) scale(4.4633333333333)"><rect width="6" height="6"/></g>
<g transform="translate(755.08333333333,443.08333333333) scale(4.4633333333333)"><rect width="6" height="6"/></g>
<g transform="translate(781.08333333333,443.08333333333) scale(4.4633333333333)"><rect width="6" height="6"/></g>
<g transform="translate(807.08333333333,443.08333333333) scale(4.4633333333333)"><rect width="6" height="6"/></g>
<g transform="translate(859.08333333333,443.08333333333) scale(4.4633333333333)"><rect width="6" height="6"/></g>
<g transform="translate(183.08333333333,469.08333333333) scale(4.4633333333333)"><rect width="6" height="6"/></g>
<g transform="translate(209.08333333333,469.08333333333) scale(4.4633333333333)"><rect width="6" height="6"/></g>
<g transform="translate(235.08333333333,469.08333333333) scale(4.4633333333333)"><rect width="6" height="6"/></g>
<g transform="translate(261.08333333333,469.08333333333) scale(4.4633333333333)"><rect width="6" height="6"/></g>
<g transform="translate(287.08333333333,469.08333333333) scale(4.4633333333333)"><rect width="6" height="6"/></g>
<g transform="translate(313.08333333333,469.08333333333) scale(4.4633333333333)"><rect width="6" height="6"/></g>
<g transform="translate(339.08333333333,469.08333333333) scale(4.4633333333333)"><rect width="6" height="6"/></g>
<g transform="translate(365.08333333333,469.08333333333) scale(4.4633333333333)"><rect width="6" height="6"/></g>
<g transform="translate(443.08333333333,469.08333333333) scale(4.4633333333333)"><rect width="6" height="6"/></g>
<g transform="translate(495.08333333333,469.08333333333) scale(4.4633333333333)"><rect width="6" height="6"/></g>
<g transform="translate(521.08333333333,469.08333333333) scale(4.4633333333333)"><rect width="6" height="6"/></g>
<g transform="translate(573.08333333333,469.08333333333) scale(4.4633333333333)"><rect width="6" height="6"/></g>
<g transform="translate(677.08333333333,469.08333333333) scale(4.4633333333333)"><rect width="6" height="6"/></g>
<g transform="translate(703.08333333333,469.08333333333) scale(4.4633333333333)"><rect width="6" height="6"/></g>
<g transform="translate(755.08333333333,469.08333333333) scale(4.4633333333333)"><rect width="6" height="6"/></g>
<g transform="translate(833.08333333333,469.08333333333) scale(4.4633333333333)"><rect width="6" height="6"/></g>
<g transform="translate(859.08333333333,469.08333333333) scale(4.4633333333333)"><rect width="6" height="6"/></g>
<g transform="translate(885.08333333333,469.08333333333) scale(4.4633333333333)"><rect width="6" height="6"/></g>
<g transform="translate(157.08333333333,495.08333333333) scale(4.4633333333333)"><rect width="6" height="6"/></g>
<g transform="translate(209.08333333333,495.08333333333) scale(4.4633333333333)"><rect width="6" height="6"/></g>
<g transform="translate(235.08333333333,495.08333333333) scale(4.4633333333333)"><rect width="6" height="6"/></g>
<g transform="translate(287.08333333333,495.08333333333) scale(4.4633333333333)"><rect width="6" height="6"/></g>
<g transform="translate(339.08333333333,495.08333333333) scale(4.4633333333333)"><rect width="6" height="6"/></g>
<g transform="translate(417.08333333333,495.08333333333) scale(4.4633333333333)"><rect width="6" height="6"/></g>
<g transform="translate(469.08333333333,495.08333333333) scale(4.4633333333333)"><rect width="6" height="6"/></g>
<g transform="translate(495.08333333333,495.08333333333) scale(4.4633333333333)"><rect width="6" height="6"/></g>
<g transform="translate(547.08333333333,495.08333333333) scale(4.4633333333333)"><rect width="6" height="6"/></g>
<g transform="translate(625.08333333333,495.08333333333) scale(4.4633333333333)"><rect width="6" height="6"/></g>
<g transform="translate(651.08333333333,495.08333333333) scale(4.4633333333333)"><rect width="6" height="6"/></g>
<g transform="translate(677.08333333333,495.08333333333) scale(4.4633333333333)"><rect width="6" height="6"/></g>
<g transform="translate(703.08333333333,495.08333333333) scale(4.4633333333333)"><rect width="6" height="6"/></g>
<g transform="translate(729.08333333333,495.08333333333) scale(4.4633333333333)"><rect width="6" height="6"/></g>
<g transform="translate(781.08333333333,495.08333333333) scale(4.4633333333333)"><rect width="6" height="6"/></g>
<g transform="translate(807.08333333333,495.08333333333) scale(4.4633333333333)"><rect width="6" height="6"/></g>
<g transform="translate(859.08333333333,495.08333333333) scale(4.4633333333333)"><rect width="6" height="6"/></g>
<g transform="translate(885.08333333333,495.08333333333) scale(4.4633333333333)"><rect width="6" height="6"/></g>
<g transform="translate(157.08333333333,521.08333333333) scale(4.4633333333333)"><rect width="6" height="6"/></g>
<g transform="translate(183.08333333333,521.08333333333) scale(4.4633333333333)"><rect width="6" height="6"/></g>
<g transform="translate(261.08333333333,521.08333333333) scale(4.4633333333333)"><rect width="6" height="6"/></g>
<g transform="translate(313.08333333333,521.08333333333) scale(4.4633333333333)"><rect width="6" height="6"/></g>
<g transform="translate(365.08333333333,521.08333333333) scale(4.4633333333333)"><rect width="6" height="6"/></g>
<g transform="translate(469.08333333333,521.08333333333) scale(4.4633333333333)"><rect width="6" height="6"/></g>
<g transform="translate(677.08333333333,521.08333333333) scale(4.4633333333333)"><rect width="6" height="6"/></g>
<g transform="translate(729.08333333333,521.08333333333) scale(4.4633333333333)"><rect width="6" height="6"/></g>
<g transform="translate(755.08333333333,521.08333333333) scale(4.4633333333333)"><rect width="6" height="6"/></g>
<g transform="translate(157.08333333333,547.08333333333) scale(4.4633333333333)"><rect width="6" height="6"/></g>
<g transform="translate(183.08333333333,547.08333333333) scale(4.4633333333333)"><rect width="6" height="6"/></g>
<g transform="translate(209.08333333333,547.08333333333) scale(4.4633333333333)"><rect width="6" height="6"/></g>
<g transform="translate(261.08333333333,547.08333333333) scale(4.4633333333333)"><rect width="6" height="6"/></g>
<g transform="translate(339.08333333333,547.08333333333) scale(4.4633333333333)"><rect width="6" height="6"/></g>
<g transform="translate(365.08333333333,547.08333333333) scale(4.4633333333333)"><rect width="6" height="6"/></g>
<g transform="translate(469.08333333333,547.08333333333) scale(4.4633333333333)"><rect width="6" height="6"/></g>
<g transform="translate(547.08333333333,547.08333333333) scale(4.4633333333333)"><rect width="6" height="6"/></g>
<g transform="translate(625.08333333333,547.08333333333) scale(4.4633333333333)"><rect width="6" height="6"/></g>
<g transform="translate(703.08333333333,547.08333333333) scale(4.4633333333333)"><rect width="6" height="6"/></g>
<g transform="translate(729.08333333333,547.08333333333) scale(4.4633333333333)"><rect width="6" height="6"/></g>
<g transform="translate(781.08333333333,547.08333333333) scale(4.4633333333333)"><rect width="6" height="6"/></g>
<g transform="translate(807.08333333333,547.08333333333) scale(4.4633333333333)"><rect width="6" height="6"/></g>
<g transform="translate(157.08333333333,573.08333333333) scale(4.4633333333333)"><rect width="6" height="6"/></g>
<g transform="translate(183.08333333333,573.08333333333) scale(4.4633333333333)"><rect width="6" height="6"/></g>
<g transform="translate(209.08333333333,573.08333333333) scale(4.4633333333333)"><rect width="6" height="6"/></g>
<g transform="translate(235.08333333333,573.08333333333) scale(4.4633333333333)"><rect width="6" height="6"/></g>
<g transform="translate(261.08333333333,573.08333333333) scale(4.4633333333333)"><rect width="6" height="6"/></g>
<g transform="translate(313.08333333333,573.08333333333) scale(4.4633333333333)"><rect width="6" height="6"/></g>
<g transform="translate(339.08333333333,573.08333333333) scale(4.4633333333333)"><rect width="6" height="6"/></g>
<g transform="translate(391.08333333333,573.08333333333) scale(4.4633333333333)"><rect width="6" height="6"/></g>
<g transform="translate(443.08333333333,573.08333333333) scale(4.4633333333333)"><rect width="6" height="6"/></g>
<g transform="translate(469.08333333333,573.08333333333) scale(4.4633333333333)"><rect width="6" height="6"/></g>
<g transform="translate(521.08333333333,573.08333333333) scale(4.4633333333333)"><rect width="6" height="6"/></g>
<g transform="translate(625.08333333333,573.08333333333) scale(4.4633333333333)"><rect width="6" height="6"/></g>
<g transform="translate(677.08333333333,573.08333333333) scale(4.4633333333333)"><rect width="6" height="6"/></g>
<g transform="translate(781.08333333333,573.08333333333) scale(4.4633333333333)"><rect width="6" height="6"/></g>
<g transform="translate(807.08333333333,573.08333333333) scale(4.4633333333333)"><rect width="6" height="6"/></g>
<g transform="translate(833.08333333333,573.08333333333) scale(4.4633333333333)"><rect width="6" height="6"/></g>
<g transform="translate(859.08333333333,573.08333333333) scale(4.4633333333333)"><rect width="6" height="6"/></g>
<g transform="translate(885.08333333333,573.08333333333) scale(4.4633333333333)"><rect width="6" height="6"/></g>
<g transform="translate(157.08333333333,599.08333333333) scale(4.4633333333333)"><rect width="6" height="6"/></g>
<g transform="translate(209.08333333333,599.08333333333) scale(4.4633333333333)"><rect width="6" height="6"/></g>
<g transform="translate(261.08333333333,599.08333333333) scale(4.4633333333333)"><rect width="6" height="6"/></g>
<g transform="translate(417.08333333333,599.08333333333) scale(4.4633333333333)"><rect width="6" height="6"/></g>
<g transform="translate(443.08333333333,599.08333333333) scale(4.4633333333333)"><rect width="6" height="6"/></g>
<g transform="translate(651.08333333333,599.08333333333) scale(4.4633333333333)"><rect width="6" height="6"/></g>
<g transform="translate(703.08333333333,599.08333333333) scale(4.4633333333333)"><rect width="6" height="6"/></g>
<g transform="translate(729.08333333333,599.08333333333) scale(4.4633333333333)"><rect width="6" height="6"/></g>
<g transform="translate(755.08333333333,599.08333333333) scale(4.4633333333333)"><rect width="6" height="6"/></g>
<g transform="translate(781.08333333333,599.08333333333) scale(4.4633333333333)"><rect width="6" height="6"/></g>
<g transform="translate(833.08333333333,599.08333333333) scale(4.4633333333333)"><rect width="6" height="6"/></g>
<g transform="translate(859.08333333333,599.08333333333) scale(4.4633333333333)"><rect width="6" height="6"/></g>
<g transform="translate(885.08333333333,599.08333333333) scale(4.4633333333333)"><rect width="6" height="6"/></g>
<g transform="translate(157.08333333333,625.08333333333) scale(4.4633333333333)"><rect width="6" height="6"/></g>
<g transform="translate(209.08333333333,625.08333333333) scale(4.4633333333333)"><rect width="6" height="6"/></g>
<g transform="translate(235.08333333333,625.08333333333) scale(4.4633333333333)"><rect width="6" height="6"/></g>
<g transform="translate(261.08333333333,625.08333333333) scale(4.4633333333333)"><rect width="6" height="6"/></g>
<g transform="translate(287.08333333333,625.08333333333) scale(4.4633333333333)"><rect width="6" height="6"/></g>
<g transform="translate(313.08333333333,625.08333333333) scale(4.4633333333333)"><rect width="6" height="6"/></g>
<g transform="translate(391.08333333333,625.08333333333) scale(4.4633333333333)"><rect width="6" height="6"/></g>
<g transform="translate(495.08333333333,625.08333333333) scale(4.4633333333333)"><rect width="6" height="6"/></g>
<g transform="translate(573.08333333333,625.08333333333) scale(4.4633333333333)"><rect width="6" height="6"/></g>
<g transform="translate(625.08333333333,625.08333333333) scale(4.4633333333333)"><rect width="6" height="6"/></g>
<g transform="translate(677.08333333333,625.08333333333) scale(4.4633333333333)"><rect width="6" height="6"/></g>
<g transform="translate(729.08333333333,625.08333333333) scale(4.4633333333333)"><rect width="6" height="6"/></g>
<g transform="translate(755.08333333333,625.08333333333) scale(4.4633333333333)"><rect width="6" height="6"/></g>
<g transform="translate(781.08333333333,625.08333333333) scale(4.4633333333333)"><rect width="6" height="6"/></g>
<g transform="translate(807.08333333333,625.08333333333) scale(4.4633333333333)"><rect width="6" height="6"/></g>
<g transform="translate(833.08333333333,625.08333333333) scale(4.4633333333333)"><rect width="6" height="6"/></g>
<g transform="translate(157.08333333333,651.08333333333) scale(4.4633333333333)"><rect width="6" height="6"/></g>
<g transform="translate(235.08333333333,651.08333333333) scale(4.4633333333333)"><rect width="6" height="6"/></g>
<g transform="translate(261.08333333333,651.08333333333) scale(4.4633333333333)"><rect width="6" height="6"/></g>
<g transform="translate(417.08333333333,651.08333333333) scale(4.4633333333333)"><rect width="6" height="6"/></g>
<g transform="translate(495.08333333333,651.08333333333) scale(4.4633333333333)"><rect width="6" height="6"/></g>
<g transform="translate(521.08333333333,651.08333333333) scale(4.4633333333333)"><rect width="6" height="6"/></g>
<g transform="translate(573.08333333333,651.08333333333) scale(4.4633333333333)"><rect width="6" height="6"/></g>
<g transform="translate(651.08333333333,651.08333333333) scale(4.4633333333333)"><rect width="6" height="6"/></g>
<g transform="translate(677.08333333333,651.08333333333) scale(4.4633333333333)"><rect width="6" height="6"/></g>
<g transform="translate(729.08333333333,651.08333333333) scale(4.4633333333333)"><rect width="6" height="6"/></g>
<g transform="translate(859.08333333333,651.08333333333) scale(4.4633333333333)"><rect width="6" height="6"/></g>
<g transform="translate(885.08333333333,651.08333333333) scale(4.4633333333333)"><rect width="6" height="6"/></g>
<g transform="translate(157.08333333333,677.08333333333) scale(4.4633333333333)"><rect width="6" height="6"/></g>
<g transform="translate(235.08333333333,677.08333333333) scale(4.4633333333333)"><rect width="6" height="6"/></g>
<g transform="translate(287.08333333333,677.08333333333) scale(4.4633333333333)"><rect width="6" height="6"/></g>
<g transform="translate(313.08333333333,677.08333333333) scale(4.4633333333333)"><rect width="6" height="6"/></g>
<g transform="translate(339.08333333333,677.08333333333) scale(4.4633333333333)"><rect width="6" height="6"/></g>
<g transform="translate(365.08333333333,677.08333333333) scale(4.4633333333333)"><rect width="6" height="6"/></g>
<g transform="translate(443.08333333333,677.08333333333) scale(4.4633333333333)"><rect width="6" height="6"/></g>
<g transform="translate(469.08333333333,677.08333333333) scale(4.4633333333333)"><rect width="6" height="6"/></g>
<g transform="translate(521.08333333333,677.08333333333) scale(4.4633333333333)"><rect width="6" height="6"/></g>
<g transform="translate(573.08333333333,677.08333333333) scale(4.4633333333333)"><rect width="6" height="6"/></g>
<g transform="translate(677.08333333333,677.08333333333) scale(4.4633333333333)"><rect width="6" height="6"/></g>
<g transform="translate(703.08333333333,677.08333333333) scale(4.4633333333333)"><rect width="6" height="6"/></g>
<g transform="translate(729.08333333333,677.08333333333) scale(4.4633333333333)"><rect width="6" height="6"/></g>
<g transform="translate(755.08333333333,677.08333333333) scale(4.4633333333333)"><rect width="6" height="6"/></g>
<g transform="translate(781.08333333333,677.08333333333) scale(4.4633333333333)"><rect width="6" height="6"/></g>
<g transform="translate(833.08333333333,677.08333333333) scale(4.4633333333333)"><rect width="6" height="6"/></g>
<g transform="translate(365.08333333333,703.08333333333) scale(4.4633333333333)"><rect width="6" height="6"/></g>
<g transform="translate(417.08333333333,703.08333333333) scale(4.4633333333333)"><rect width="6" height="6"/></g>
<g transform="translate(443.08333333333,703.08333333333) scale(4.4633333333333)"><rect width="6" height="6"/></g>
<g transform="translate(469.08333333333,703.08333333333) scale(4.4633333333333)"><rect width="6" height="6"/></g>
<g transform="translate(495.08333333333,703.08333333333) scale(4.4633333333333)"><rect width="6" height="6"/></g>
<g transform="translate(521.08333333333,703.08333333333) scale(4.4633333333333)"><rect width="6" height="6"/></g>
<g transform="translate(547.08333333333,703.08333333333) scale(4.4633333333333)"><rect width="6" height="6"/></g>
<g transform="translate(599.08333333333,703.08333333333) scale(4.4633333333333)"><rect width="6" height="6"/></g>
<g transform="translate(625.08333333333,703.08333333333) scale(4.4633333333333)"><rect width="6" height="6"/></g>
<g transform="translate(651.08333333333,703.08333333333) scale(4.4633333333333)"><rect width="6" height="6"/></g>
<g transform="translate(677.08333333333,703.08333333333) scale(4.4633333333333)"><rect width="6" height="6"/></g>
<g transform="translate(781.08333333333,703.08333333333) scale(4.4633333333333)"><rect width="6" height="6"/></g>
<g transform="translate(807.08333333333,703.08333333333) scale(4.4633333333333)"><rect width="6" height="6"/></g>
<g transform="translate(859.08333333333,703.08333333333) scale(4.4633333333333)"><rect width="6" height="6"/></g>
<g transform="translate(885.08333333333,703.08333333333) scale(4.4633333333333)"><rect width="6" height="6"/></g>
<g transform="translate(443.08333333333,729.08333333333) scale(4.4633333333333)"><rect width="6" height="6"/></g>
<g transform="translate(495.08333333333,729.08333333333) scale(4.4633333333333)"><rect width="6" height="6"/></g>
<g transform="translate(547.08333333333,729.08333333333) scale(4.4633333333333)"><rect width="6" height="6"/></g>
<g transform="translate(625.08333333333,729.08333333333) scale(4.4633333333333)"><rect width="6" height="6"/></g>
<g transform="translate(651.08333333333,729.08333333333) scale(4.4633333333333)"><rect width="6" height="6"/></g>
<g transform="translate(677.08333333333,729.08333333333) scale(4.4633333333333)"><rect width="6" height="6"/></g>
<g transform="translate(729.08333333333,729.08333333333) scale(4.4633333333333)"><rect width="6" height="6"/></g>
<g transform="translate(781.08333333333,729.08333333333) scale(4.4633333333333)"><rect width="6" height="6"/></g>
<g transform="translate(391.08333333333,755.08333333333) scale(4.4633333333333)"><rect width="6" height="6"/></g>
<g transform="translate(521.08333333333,755.08333333333) scale(4.4633333333333)"><rect width="6" height="6"/></g>
<g transform="translate(547.08333333333,755.08333333333) scale(4.4633333333333)"><rect width="6" height="6"/></g>
<g transform="translate(599.08333333333,755.08333333333) scale(4.4633333333333)"><rect width="6" height="6"/></g>
<g transform="translate(625.08333333333,755.08333333333) scale(4.4633333333333)"><rect width="6" height="6"/></g>
<g transform="translate(651.08333333333,755.08333333333) scale(4.4633333333333)"><rect width="6" height="6"/></g>
<g transform="translate(677.08333333333,755.08333333333) scale(4.4633333333333)"><rect width="6" height="6"/></g>
<g transform="translate(781.08333333333,755.08333333333) scale(4.4633333333333)"><rect width="6" height="6"/></g>
<g transform="translate(807.08333333333,755.08333333333) scale(4.4633333333333)"><rect width="6" height="6"/></g>
<g transform="translate(859.08333333333,755.08333333333) scale(4.4633333333333)"><rect width="6" height="6"/></g>
<g transform="translate(365.08333333333,781.08333333333) scale(4.4633333333333)"><rect width="6" height="6"/></g>
<g transform="translate(391.08333333333,781.08333333333) scale(4.4633333333333)"><rect width="6" height="6"/></g>
<g transform="translate(417.08333333333,781.08333333333) scale(4.4633333333333)"><rect width="6" height="6"/></g>
<g transform="translate(547.08333333333,781.08333333333) scale(4.4633333333333)"><rect width="6" height="6"/></g>
<g transform="translate(625.08333333333,781.08333333333) scale(4.4633333333333)"><rect width="6" height="6"/></g>
<g transform="translate(677.08333333333,781.08333333333) scale(4.4633333333333)"><rect width="6" height="6"/></g>
<g transform="translate(703.08333333333,781.08333333333) scale(4.4633333333333)"><rect width="6" height="6"/></g>
<g transform="translate(729.08333333333,781.08333333333) scale(4.4633333333333)"><rect width="6" height="6"/></g>
<g transform="translate(755.08333333333,781.08333333333) scale(4.4633333333333)"><rect width="6" height="6"/></g>
<g transform="translate(781.08333333333,781.08333333333) scale(4.4633333333333)"><rect width="6" height="6"/></g>
<g transform="translate(807.08333333333,781.08333333333) scale(4.4633333333333)"><rect width="6" height="6"/></g>
<g transform="translate(833.08333333333,781.08333333333) scale(4.4633333333333)"><rect width="6" height="6"/></g>
<g transform="translate(885.08333333333,781.08333333333) scale(4.4633333333333)"><rect width="6" height="6"/></g>
<g transform="translate(365.08333333333,807.08333333333) scale(4.4633333333333)"><rect width="6" height="6"/></g>
<g transform="translate(391.08333333333,807.08333333333) scale(4.4633333333333)"><rect width="6" height="6"/></g>
<g transform="translate(651.08333333333,807.08333333333) scale(4.4633333333333)"><rect width="6" height="6"/></g>
<g transform="translate(677.08333333333,807.08333333333) scale(4.4633333333333)"><rect width="6" height="6"/></g>
<g transform="translate(703.08333333333,807.08333333333) scale(4.4633333333333)"><rect width="6" height="6"/></g>
<g transform="translate(755.08333333333,807.08333333333) scale(4.4633333333333)"><rect width="6" height="6"/></g>
<g transform="translate(807.08333333333,807.08333333333) scale(4.4633333333333)"><rect width="6" height="6"/></g>
<g transform="translate(833.08333333333,807.08333333333) scale(4.4633333333333)"><rect width="6" height="6"/></g>
<g transform="translate(365.08333333333,833.08333333333) scale(4.4633333333333)"><rect width="6" height="6"/></g>
<g transform="translate(391.08333333333,833.08333333333) scale(4.4633333333333)"><rect width="6" height="6"/></g>
<g transform="translate(443.08333333333,833.08333333333) scale(4.4633333333333)"><rect width="6" height="6"/></g>
<g transform="translate(469.08333333333,833.08333333333) scale(4.4633333333333)"><rect width="6" height="6"/></g>
<g transform="translate(521.08333333333,833.08333333333) scale(4.4633333333333)"><rect width="6" height="6"/></g>
<g transform="translate(573.08333333333,833.08333333333) scale(4.4633333333333)"><rect width="6" height="6"/></g>
<g transform="translate(625.08333333333,833.08333333333) scale(4.4633333333333)"><rect width="6" height="6"/></g>
<g transform="translate(651.08333333333,833.08333333333) scale(4.4633333333333)"><rect width="6" height="6"/></g>
<g transform="translate(677.08333333333,833.08333333333) scale(4.4633333333333)"><rect width="6" height="6"/></g>
<g transform="translate(703.08333333333,833.08333333333) scale(4.4633333333333)"><rect width="6" height="6"/></g>
<g transform="translate(729.08333333333,833.08333333333) scale(4.4633333333333)"><rect width="6" height="6"/></g>
<g transform="translate(755.08333333333,833.08333333333) scale(4.4633333333333)"><rect width="6" height="6"/></g>
<g transform="translate(781.08333333333,833.08333333333) scale(4.4633333333333)"><rect width="6" height="6"/></g>
<g transform="translate(807.08333333333,833.08333333333) scale(4.4633333333333)"><rect width="6" height="6"/></g>
<g transform="translate(833.08333333333,833.08333333333) scale(4.4633333333333)"><rect width="6" height="6"/></g>
<g transform="translate(859.08333333333,833.08333333333) scale(4.4633333333333)"><rect width="6" height="6"/></g>
<g transform="translate(417.08333333333,859.08333333333) scale(4.4633333333333)"><rect width="6" height="6"/></g>
<g transform="translate(495.08333333333,859.08333333333) scale(4.4633333333333)"><rect width="6" height="6"/></g>
<g transform="translate(521.08333333333,859.08333333333) scale(4.4633333333333)"><rect width="6" height="6"/></g>
<g transform="translate(573.08333333333,859.08333333333) scale(4.4633333333333)"><rect width="6" height="6"/></g>
<g transform="translate(651.08333333333,859.08333333333) scale(4.4633333333333)"><rect width="6" height="6"/></g>
<g transform="translate(677.08333333333,859.08333333333) scale(4.4633333333333)"><rect width="6" height="6"/></g>
<g transform="translate(729.08333333333,859.08333333333) scale(4.4633333333333)"><rect width="6" height="6"/></g>
<g transform="translate(781.08333333333,859.08333333333) scale(4.4633333333333)"><rect width="6" height="6"/></g>
<g transform="translate(807.08333333333,859.08333333333) scale(4.4633333333333)"><rect width="6" height="6"/></g>
<g transform="translate(859.08333333333,859.08333333333) scale(4.4633333333333)"><rect width="6" height="6"/></g>
<g transform="translate(417.08333333333,885.08333333333) scale(4.4633333333333)"><rect width="6" height="6"/></g>
<g transform="translate(547.08333333333,885.08333333333) scale(4.4633333333333)"><rect width="6" height="6"/></g>
<g transform="translate(573.08333333333,885.08333333333) scale(4.4633333333333)"><rect width="6" height="6"/></g>
<g transform="translate(599.08333333333,885.08333333333) scale(4.4633333333333)"><rect width="6" height="6"/></g>
<g transform="translate(651.08333333333,885.08333333333) scale(4.4633333333333)"><rect width="6" height="6"/></g>
<g transform="translate(703.08333333333,885.08333333333) scale(4.4633333333333)"><rect width="6" height="6"/></g>
<g transform="translate(781.08333333333,885.08333333333) scale(4.4633333333333)"><rect width="6" height="6"/></g>
<g transform="translate(807.08333333333,885.08333333333) scale(4.4633333333333)"><rect width="6" height="6"/></g>
<g transform="translate(833.08333333333,885.08333333333) scale(4.4633333333333)"><rect width="6" height="6"/></g>
</g><g ><g transform="translate(157.08333333333,157.08333333333)"  fill="#000000"><g transform="scale(13)"><path d="M0,0v14h14V0H0z M12,12H2V2h10V12z"/></g></g>
<g transform="translate(729.08333333333,157.08333333333)"  fill="#000000"><g transform="scale(13)"><path d="M0,0v14h14V0H0z M12,12H2V2h10V12z"/></g></g>
<g transform="translate(157.08333333333,729.08333333333)"  fill="#000000"><g transform="scale(13)"><path d="M0,0v14h14V0H0z M12,12H2V2h10V12z"/></g></g>
<g transform="translate(209.08333333333,209.08333333333)"  fill="#000000"><g transform="scale(13)"><rect width="6" height="6"/></g></g>
<g transform="translate(781.08333333333,209.08333333333)"  fill="#000000"><g transform="scale(13)"><rect width="6" height="6"/></g></g>
<g transform="translate(209.08333333333,781.08333333333)"  fill="#000000"><g transform="scale(13)"><rect width="6" height="6"/></g></g></g>
<text fill="#FFFFFF" font-family="Arial, Helvetica, sans-serif" font-size="69.156944444444px" text-anchor="middle" x="534.08333333333" y="133.86618589744" transform="translate(0,979.15277777778)">lab broken accesso control</text></svg>